<mxfile host="app.diagrams.net" modified="2022-12-31T14:56:57.082Z" agent="5.0 (Windows NT 10.0; Win64; x64) AppleWebKit/537.36 (KHTML, like Gecko) Chrome/108.0.0.0 Safari/537.36" etag="5ACutNvak_IfszJpyK7m" version="20.7.4" type="github" pages="3">
  <diagram id="zIGdNPNbhhE6lSvEZrrU" name="Obstacle Circumvention">
    <mxGraphModel dx="1434" dy="760" grid="1" gridSize="10" guides="1" tooltips="1" connect="1" arrows="1" fold="1" page="1" pageScale="1" pageWidth="827" pageHeight="1169" math="0" shadow="0">
      <root>
        <mxCell id="0" />
        <mxCell id="1" parent="0" />
        <mxCell id="QtmVxgCAGKu7iHU9TP4w-3" value="" style="verticalLabelPosition=bottom;html=1;verticalAlign=top;align=center;shape=mxgraph.floorplan.wallU;fillColor=#ffe6cc;rotation=-180;strokeColor=#d79b00;" parent="1" vertex="1">
          <mxGeometry x="400" y="205.71428571428572" width="280" height="314.28571428571433" as="geometry" />
        </mxCell>
        <mxCell id="QtmVxgCAGKu7iHU9TP4w-4" value="" style="verticalLabelPosition=bottom;html=1;verticalAlign=top;align=center;shape=mxgraph.floorplan.wall;fillColor=#ffe6cc;strokeColor=#d79b00;" parent="1" vertex="1">
          <mxGeometry x="512" y="192.14" width="168" height="15.714285714285715" as="geometry" />
        </mxCell>
        <mxCell id="QtmVxgCAGKu7iHU9TP4w-1" value="Gateway" style="fontColor=#0066CC;verticalAlign=top;verticalLabelPosition=bottom;labelPosition=center;align=center;html=1;outlineConnect=0;fillColor=#CCCCCC;strokeColor=#6881B3;gradientColor=none;gradientDirection=north;strokeWidth=2;shape=mxgraph.networks.wireless_modem;aspect=fixed;" parent="1" vertex="1">
          <mxGeometry x="504.31" y="240" width="71.38" height="73.1" as="geometry" />
        </mxCell>
        <mxCell id="YuJZOCIygiksiBwF_Rrv-1" value="Server" style="fontColor=#0066CC;verticalAlign=top;verticalLabelPosition=bottom;labelPosition=center;align=center;html=1;outlineConnect=0;fillColor=#CCCCCC;strokeColor=#6881B3;gradientColor=none;gradientDirection=north;strokeWidth=2;shape=mxgraph.networks.terminal;aspect=fixed;" parent="1" vertex="1">
          <mxGeometry x="507.55" y="400" width="64.9" height="60" as="geometry" />
        </mxCell>
        <mxCell id="QtmVxgCAGKu7iHU9TP4w-8" value="" style="verticalLabelPosition=bottom;html=1;verticalAlign=top;align=center;shape=mxgraph.floorplan.wallU;fillColor=#ffe6cc;rotation=-180;strokeColor=#d79b00;" parent="1" vertex="1">
          <mxGeometry x="120" y="205.71428571428572" width="280" height="314.28571428571433" as="geometry" />
        </mxCell>
        <mxCell id="QtmVxgCAGKu7iHU9TP4w-9" value="" style="verticalLabelPosition=bottom;html=1;verticalAlign=top;align=center;shape=mxgraph.floorplan.wall;fillColor=#ffe6cc;strokeColor=#d79b00;" parent="1" vertex="1">
          <mxGeometry x="120" y="192.14" width="168" height="15.714285714285715" as="geometry" />
        </mxCell>
        <mxCell id="YuJZOCIygiksiBwF_Rrv-7" value="Client" style="fontColor=#0066CC;verticalAlign=top;verticalLabelPosition=bottom;labelPosition=center;align=center;html=1;outlineConnect=0;fillColor=#CCCCCC;strokeColor=#6881B3;gradientColor=none;gradientDirection=north;strokeWidth=2;shape=mxgraph.networks.terminal;aspect=fixed;" parent="1" vertex="1">
          <mxGeometry x="227.54999999999995" y="332.86" width="64.9" height="60" as="geometry" />
        </mxCell>
        <mxCell id="ujsYWoHocGrktLwY6T0Z-1" value="" style="html=1;outlineConnect=0;fillColor=#CCCCCC;strokeColor=#6881B3;gradientColor=none;gradientDirection=north;strokeWidth=2;shape=mxgraph.networks.comm_link_edge;html=1;rounded=0;" parent="1" source="YuJZOCIygiksiBwF_Rrv-7" target="QtmVxgCAGKu7iHU9TP4w-1" edge="1">
          <mxGeometry width="100" height="100" relative="1" as="geometry">
            <mxPoint x="294.31" y="356.11" as="sourcePoint" />
            <mxPoint x="320" y="180" as="targetPoint" />
            <Array as="points">
              <mxPoint x="400" y="350" />
            </Array>
          </mxGeometry>
        </mxCell>
        <mxCell id="ujsYWoHocGrktLwY6T0Z-2" value="" style="group" parent="1" vertex="1" connectable="0">
          <mxGeometry x="570" y="290" width="24.310000000000002" height="150" as="geometry" />
        </mxCell>
        <mxCell id="YuJZOCIygiksiBwF_Rrv-2" value="" style="sketch=0;pointerEvents=1;shadow=0;dashed=0;html=1;strokeColor=none;fillColor=#6881B3;aspect=fixed;labelPosition=center;verticalLabelPosition=bottom;verticalAlign=top;align=center;outlineConnect=0;shape=mxgraph.vvd.ethernet_port;" parent="ujsYWoHocGrktLwY6T0Z-2" vertex="1">
          <mxGeometry x="4.310000000000002" width="20" height="20" as="geometry" />
        </mxCell>
        <mxCell id="YuJZOCIygiksiBwF_Rrv-4" value="" style="sketch=0;pointerEvents=1;shadow=0;dashed=0;html=1;strokeColor=none;fillColor=#6881B3;aspect=fixed;labelPosition=center;verticalLabelPosition=bottom;verticalAlign=top;align=center;outlineConnect=0;shape=mxgraph.vvd.ethernet_port;" parent="ujsYWoHocGrktLwY6T0Z-2" vertex="1">
          <mxGeometry x="4.310000000000002" y="130" width="20" height="20" as="geometry" />
        </mxCell>
        <mxCell id="YuJZOCIygiksiBwF_Rrv-5" value="" style="curved=1;endArrow=none;html=1;rounded=0;strokeColor=#6881B3;endFill=0;strokeWidth=2;" parent="ujsYWoHocGrktLwY6T0Z-2" source="YuJZOCIygiksiBwF_Rrv-4" target="YuJZOCIygiksiBwF_Rrv-2" edge="1">
          <mxGeometry width="50" height="50" relative="1" as="geometry">
            <mxPoint x="-50" y="100" as="sourcePoint" />
            <mxPoint y="50" as="targetPoint" />
            <Array as="points">
              <mxPoint x="20" y="100" />
              <mxPoint y="50" />
            </Array>
          </mxGeometry>
        </mxCell>
        <mxCell id="ujsYWoHocGrktLwY6T0Z-3" value="" style="verticalLabelPosition=bottom;html=1;verticalAlign=top;align=center;shape=mxgraph.floorplan.wallU;fillColor=#ffe6cc;rotation=-180;strokeColor=#d79b00;perimeterSpacing=0;" parent="1" vertex="1">
          <mxGeometry x="400" y="805.7142857142858" width="280" height="314.28571428571433" as="geometry" />
        </mxCell>
        <mxCell id="ujsYWoHocGrktLwY6T0Z-4" value="" style="verticalLabelPosition=bottom;html=1;verticalAlign=top;align=center;shape=mxgraph.floorplan.wall;fillColor=#ffe6cc;strokeColor=#d79b00;perimeterSpacing=0;" parent="1" vertex="1">
          <mxGeometry x="512" y="792.14" width="168" height="15.714285714285715" as="geometry" />
        </mxCell>
        <mxCell id="ujsYWoHocGrktLwY6T0Z-6" value="Gateway" style="fontColor=#0066CC;verticalAlign=top;verticalLabelPosition=bottom;labelPosition=center;align=center;html=1;outlineConnect=0;fillColor=#CCCCCC;strokeColor=#6881B3;gradientColor=none;gradientDirection=north;strokeWidth=2;shape=mxgraph.networks.wireless_modem;aspect=fixed;" parent="1" vertex="1">
          <mxGeometry x="504.30999999999995" y="840" width="71.38" height="73.1" as="geometry" />
        </mxCell>
        <mxCell id="ujsYWoHocGrktLwY6T0Z-7" value="Server" style="fontColor=#0066CC;verticalAlign=top;verticalLabelPosition=bottom;labelPosition=center;align=center;html=1;outlineConnect=0;fillColor=#CCCCCC;strokeColor=#6881B3;gradientColor=none;gradientDirection=north;strokeWidth=2;shape=mxgraph.networks.terminal;aspect=fixed;" parent="1" vertex="1">
          <mxGeometry x="507.54999999999995" y="1000" width="64.9" height="60" as="geometry" />
        </mxCell>
        <mxCell id="ujsYWoHocGrktLwY6T0Z-8" value="" style="verticalLabelPosition=bottom;html=1;verticalAlign=top;align=center;shape=mxgraph.floorplan.wallU;fillColor=#ffe6cc;rotation=-180;strokeColor=#d79b00;perimeterSpacing=0;" parent="1" vertex="1">
          <mxGeometry x="120" y="805.7142857142858" width="280" height="314.28571428571433" as="geometry" />
        </mxCell>
        <mxCell id="ujsYWoHocGrktLwY6T0Z-9" value="" style="verticalLabelPosition=bottom;html=1;verticalAlign=top;align=center;shape=mxgraph.floorplan.wall;fillColor=#ffe6cc;strokeColor=#d79b00;perimeterSpacing=0;" parent="1" vertex="1">
          <mxGeometry x="120" y="792.14" width="168" height="15.714285714285715" as="geometry" />
        </mxCell>
        <mxCell id="ujsYWoHocGrktLwY6T0Z-11" value="Client" style="fontColor=#0066CC;verticalAlign=top;verticalLabelPosition=bottom;labelPosition=center;align=center;html=1;outlineConnect=0;fillColor=#CCCCCC;strokeColor=#6881B3;gradientColor=none;gradientDirection=north;strokeWidth=2;shape=mxgraph.networks.terminal;aspect=fixed;" parent="1" vertex="1">
          <mxGeometry x="227.54999999999995" y="932.86" width="64.9" height="60" as="geometry" />
        </mxCell>
        <mxCell id="ujsYWoHocGrktLwY6T0Z-12" value="" style="html=1;outlineConnect=0;fillColor=#CCCCCC;strokeColor=#6881B3;gradientColor=none;gradientDirection=north;strokeWidth=2;shape=mxgraph.networks.comm_link_edge;html=1;rounded=0;entryX=0.02;entryY=0.94;entryDx=0;entryDy=0;entryPerimeter=0;" parent="1" source="ujsYWoHocGrktLwY6T0Z-11" target="cWtxeuDhiv30KlsEX_td-1" edge="1">
          <mxGeometry width="100" height="100" relative="1" as="geometry">
            <mxPoint x="294.31" y="956.11" as="sourcePoint" />
            <mxPoint x="320" y="780" as="targetPoint" />
            <Array as="points">
              <mxPoint x="400" y="950" />
              <mxPoint x="440" y="720" />
            </Array>
          </mxGeometry>
        </mxCell>
        <mxCell id="ujsYWoHocGrktLwY6T0Z-13" value="" style="group" parent="1" vertex="1" connectable="0">
          <mxGeometry x="570" y="890" width="24.310000000000002" height="150" as="geometry" />
        </mxCell>
        <mxCell id="ujsYWoHocGrktLwY6T0Z-14" value="" style="sketch=0;pointerEvents=1;shadow=0;dashed=0;html=1;strokeColor=none;fillColor=#6881B3;aspect=fixed;labelPosition=center;verticalLabelPosition=bottom;verticalAlign=top;align=center;outlineConnect=0;shape=mxgraph.vvd.ethernet_port;" parent="ujsYWoHocGrktLwY6T0Z-13" vertex="1">
          <mxGeometry x="4.310000000000002" width="20" height="20" as="geometry" />
        </mxCell>
        <mxCell id="ujsYWoHocGrktLwY6T0Z-15" value="" style="sketch=0;pointerEvents=1;shadow=0;dashed=0;html=1;strokeColor=none;fillColor=#6881B3;aspect=fixed;labelPosition=center;verticalLabelPosition=bottom;verticalAlign=top;align=center;outlineConnect=0;shape=mxgraph.vvd.ethernet_port;" parent="ujsYWoHocGrktLwY6T0Z-13" vertex="1">
          <mxGeometry x="4.310000000000002" y="130" width="20" height="20" as="geometry" />
        </mxCell>
        <mxCell id="ujsYWoHocGrktLwY6T0Z-16" value="" style="curved=1;endArrow=none;html=1;rounded=0;strokeColor=#6881B3;endFill=0;strokeWidth=2;" parent="ujsYWoHocGrktLwY6T0Z-13" source="ujsYWoHocGrktLwY6T0Z-15" target="ujsYWoHocGrktLwY6T0Z-14" edge="1">
          <mxGeometry width="50" height="50" relative="1" as="geometry">
            <mxPoint x="-50" y="100" as="sourcePoint" />
            <mxPoint y="50" as="targetPoint" />
            <Array as="points">
              <mxPoint x="20" y="100" />
              <mxPoint y="50" />
            </Array>
          </mxGeometry>
        </mxCell>
        <mxCell id="cWtxeuDhiv30KlsEX_td-1" value="Extender A" style="fontColor=#0066CC;verticalAlign=top;verticalLabelPosition=bottom;labelPosition=center;align=center;html=1;outlineConnect=0;fillColor=#CCCCCC;strokeColor=#6881B3;gradientColor=none;gradientDirection=north;strokeWidth=2;shape=mxgraph.networks.wireless_hub;" parent="1" vertex="1">
          <mxGeometry x="344" y="640" width="100" height="85" as="geometry" />
        </mxCell>
        <mxCell id="cWtxeuDhiv30KlsEX_td-3" value="" style="html=1;outlineConnect=0;fillColor=#CCCCCC;strokeColor=#6881B3;gradientColor=none;gradientDirection=north;strokeWidth=2;shape=mxgraph.networks.comm_link_edge;html=1;rounded=0;entryX=0.98;entryY=0.94;entryDx=0;entryDy=0;entryPerimeter=0;exitX=-0.041;exitY=0.766;exitDx=0;exitDy=0;exitPerimeter=0;" parent="1" source="ujsYWoHocGrktLwY6T0Z-6" target="cWtxeuDhiv30KlsEX_td-1" edge="1">
          <mxGeometry width="100" height="100" relative="1" as="geometry">
            <mxPoint x="410" y="969.8792357142854" as="sourcePoint" />
            <mxPoint x="356.4499999999998" y="729.8999999999994" as="targetPoint" />
            <Array as="points">
              <mxPoint x="302.4499999999998" y="959.9999999999995" />
            </Array>
          </mxGeometry>
        </mxCell>
        <mxCell id="cWtxeuDhiv30KlsEX_td-5" value="" style="verticalLabelPosition=bottom;html=1;verticalAlign=top;align=center;shape=mxgraph.floorplan.wall;fillColor=#ffe6cc;strokeColor=#d79b00;perimeterSpacing=0;" parent="1" vertex="1">
          <mxGeometry x="364" y="792.14" width="70" height="15.71" as="geometry" />
        </mxCell>
        <mxCell id="cWtxeuDhiv30KlsEX_td-8" value="" style="verticalLabelPosition=bottom;html=1;verticalAlign=top;align=center;shape=mxgraph.floorplan.wall;fillColor=#ffe6cc;strokeColor=#d79b00;perimeterSpacing=0;" parent="1" vertex="1">
          <mxGeometry x="364" y="192" width="70" height="15.71" as="geometry" />
        </mxCell>
        <mxCell id="gNSwTtddg9F10IyBM62H-1" value="2.4 GHz" style="text;html=1;strokeColor=none;fillColor=none;align=center;verticalAlign=middle;whiteSpace=wrap;rounded=0;fontSize=12;fontColor=#0066CC;" vertex="1" parent="1">
          <mxGeometry x="320" y="290" width="80" height="30" as="geometry" />
        </mxCell>
        <mxCell id="gNSwTtddg9F10IyBM62H-2" value="2.4 GHz" style="text;html=1;strokeColor=none;fillColor=none;align=center;verticalAlign=middle;whiteSpace=wrap;rounded=0;fontSize=12;fontColor=#0066CC;" vertex="1" parent="1">
          <mxGeometry x="227.55" y="830" width="80" height="30" as="geometry" />
        </mxCell>
        <mxCell id="gNSwTtddg9F10IyBM62H-3" value="5 GHz" style="text;html=1;strokeColor=none;fillColor=none;align=center;verticalAlign=middle;whiteSpace=wrap;rounded=0;fontSize=12;fontColor=#0066CC;" vertex="1" parent="1">
          <mxGeometry x="460" y="760" width="80" height="30" as="geometry" />
        </mxCell>
      </root>
    </mxGraphModel>
  </diagram>
  <diagram id="mJzjhKl8BXe98TljxDSJ" name="Mobile Waterfall">
    <mxGraphModel dx="1434" dy="760" grid="1" gridSize="10" guides="1" tooltips="1" connect="1" arrows="1" fold="1" page="1" pageScale="1" pageWidth="827" pageHeight="1169" math="0" shadow="0">
      <root>
        <mxCell id="0" />
        <mxCell id="1" parent="0" />
        <mxCell id="Vn-rx3-JygAiav4-byIh-1" value="Gateway" style="fontColor=#0066CC;verticalAlign=top;verticalLabelPosition=bottom;labelPosition=center;align=center;html=1;outlineConnect=0;fillColor=#CCCCCC;strokeColor=#6881B3;gradientColor=none;gradientDirection=north;strokeWidth=2;shape=mxgraph.networks.wireless_modem;aspect=fixed;" parent="1" vertex="1">
          <mxGeometry x="39.99999999999994" y="760" width="71.38" height="73.1" as="geometry" />
        </mxCell>
        <mxCell id="Vn-rx3-JygAiav4-byIh-2" value="Server" style="fontColor=#0066CC;verticalAlign=top;verticalLabelPosition=bottom;labelPosition=center;align=center;html=1;outlineConnect=0;fillColor=#CCCCCC;strokeColor=#6881B3;gradientColor=none;gradientDirection=north;strokeWidth=2;shape=mxgraph.networks.terminal;aspect=fixed;" parent="1" vertex="1">
          <mxGeometry x="43.23999999999995" y="920" width="64.9" height="60" as="geometry" />
        </mxCell>
        <mxCell id="Vn-rx3-JygAiav4-byIh-3" value="" style="group" parent="1" vertex="1" connectable="0">
          <mxGeometry x="105.69" y="810" width="24.310000000000002" height="150" as="geometry" />
        </mxCell>
        <mxCell id="Vn-rx3-JygAiav4-byIh-4" value="" style="sketch=0;pointerEvents=1;shadow=0;dashed=0;html=1;strokeColor=none;fillColor=#6881B3;aspect=fixed;labelPosition=center;verticalLabelPosition=bottom;verticalAlign=top;align=center;outlineConnect=0;shape=mxgraph.vvd.ethernet_port;" parent="Vn-rx3-JygAiav4-byIh-3" vertex="1">
          <mxGeometry x="4.310000000000002" width="20" height="20" as="geometry" />
        </mxCell>
        <mxCell id="Vn-rx3-JygAiav4-byIh-5" value="" style="sketch=0;pointerEvents=1;shadow=0;dashed=0;html=1;strokeColor=none;fillColor=#6881B3;aspect=fixed;labelPosition=center;verticalLabelPosition=bottom;verticalAlign=top;align=center;outlineConnect=0;shape=mxgraph.vvd.ethernet_port;" parent="Vn-rx3-JygAiav4-byIh-3" vertex="1">
          <mxGeometry x="4.310000000000002" y="130" width="20" height="20" as="geometry" />
        </mxCell>
        <mxCell id="Vn-rx3-JygAiav4-byIh-6" value="" style="curved=1;endArrow=none;html=1;rounded=0;strokeColor=#6881B3;endFill=0;strokeWidth=2;" parent="Vn-rx3-JygAiav4-byIh-3" source="Vn-rx3-JygAiav4-byIh-5" target="Vn-rx3-JygAiav4-byIh-4" edge="1">
          <mxGeometry width="50" height="50" relative="1" as="geometry">
            <mxPoint x="-50" y="100" as="sourcePoint" />
            <mxPoint y="50" as="targetPoint" />
            <Array as="points">
              <mxPoint x="20" y="100" />
              <mxPoint y="50" />
            </Array>
          </mxGeometry>
        </mxCell>
        <mxCell id="gaxqdymrh4cW0pRXTRzF-1" value="Extender A" style="fontColor=#0066CC;verticalAlign=top;verticalLabelPosition=bottom;labelPosition=center;align=center;html=1;outlineConnect=0;fillColor=#CCCCCC;strokeColor=#6881B3;gradientColor=none;gradientDirection=north;strokeWidth=2;shape=mxgraph.networks.wireless_hub;aspect=fixed;" parent="1" vertex="1">
          <mxGeometry x="360" y="760" width="85.88" height="73" as="geometry" />
        </mxCell>
        <mxCell id="gaxqdymrh4cW0pRXTRzF-2" value="Extender B" style="fontColor=#0066CC;verticalAlign=top;verticalLabelPosition=bottom;labelPosition=center;align=center;html=1;outlineConnect=0;fillColor=#CCCCCC;strokeColor=#6881B3;gradientColor=none;gradientDirection=north;strokeWidth=2;shape=mxgraph.networks.wireless_hub;aspect=fixed;" parent="1" vertex="1">
          <mxGeometry x="680" y="760" width="85.88" height="73" as="geometry" />
        </mxCell>
        <mxCell id="KyPmLu0O3_D3CWPccuJL-1" value="" style="html=1;outlineConnect=0;fillColor=#CCCCCC;strokeColor=#6881B3;gradientColor=none;gradientDirection=north;strokeWidth=2;shape=mxgraph.networks.comm_link_edge;html=1;rounded=0;entryX=0.55;entryY=0;entryDx=0;entryDy=0;entryPerimeter=0;" parent="1" target="gaxqdymrh4cW0pRXTRzF-1" edge="1">
          <mxGeometry width="100" height="100" relative="1" as="geometry">
            <mxPoint x="107" y="760" as="sourcePoint" />
            <mxPoint x="404.2339999999999" y="760" as="targetPoint" />
            <Array as="points">
              <mxPoint x="247" y="760" />
              <mxPoint x="267" y="750" />
            </Array>
          </mxGeometry>
        </mxCell>
        <mxCell id="KyPmLu0O3_D3CWPccuJL-2" value="" style="html=1;outlineConnect=0;fillColor=#CCCCCC;strokeColor=#6881B3;gradientColor=none;gradientDirection=north;strokeWidth=2;shape=mxgraph.networks.comm_link_edge;html=1;rounded=0;entryX=0.55;entryY=0;entryDx=0;entryDy=0;entryPerimeter=0;exitX=0.82;exitY=0;exitDx=0;exitDy=0;exitPerimeter=0;" parent="1" source="gaxqdymrh4cW0pRXTRzF-1" target="gaxqdymrh4cW0pRXTRzF-2" edge="1">
          <mxGeometry width="100" height="100" relative="1" as="geometry">
            <mxPoint x="430" y="730" as="sourcePoint" />
            <mxPoint x="727.2339999999999" y="730" as="targetPoint" />
            <Array as="points">
              <mxPoint x="570" y="730" />
              <mxPoint x="590" y="720" />
            </Array>
          </mxGeometry>
        </mxCell>
        <mxCell id="KyPmLu0O3_D3CWPccuJL-5" value="&lt;font color=&quot;#6881b3&quot;&gt;Mobile Client&lt;/font&gt;" style="fontColor=#0066CC;verticalAlign=top;verticalLabelPosition=bottom;labelPosition=center;align=center;html=1;outlineConnect=0;fillColor=#CCCCCC;strokeColor=#6881B3;gradientColor=none;gradientDirection=north;strokeWidth=2;shape=mxgraph.networks.laptop;sketch=0;aspect=fixed;opacity=40;" parent="1" vertex="1">
          <mxGeometry x="200" y="920" width="72.73" height="40" as="geometry" />
        </mxCell>
        <mxCell id="bPi-4fs3GxHla9bLMD3g-1" value="" style="html=1;outlineConnect=0;fillColor=#CCCCCC;strokeColor=#6881B3;gradientColor=none;gradientDirection=north;strokeWidth=2;shape=mxgraph.networks.comm_link_edge;html=1;rounded=0;entryX=0.5;entryY=0;entryDx=0;entryDy=0;entryPerimeter=0;opacity=40;" parent="1" target="KyPmLu0O3_D3CWPccuJL-5" edge="1">
          <mxGeometry width="100" height="100" relative="1" as="geometry">
            <mxPoint x="140" y="830" as="sourcePoint" />
            <mxPoint x="320" y="1040" as="targetPoint" />
            <Array as="points">
              <mxPoint x="220" y="940" />
              <mxPoint x="190" y="860" />
            </Array>
          </mxGeometry>
        </mxCell>
        <mxCell id="bPi-4fs3GxHla9bLMD3g-2" value="" style="shape=flexArrow;endArrow=classic;html=1;rounded=0;strokeColor=none;fillColor=#6881B3;gradientColor=#91B4FA;gradientDirection=west;width=16;endSize=7.67;" parent="1" edge="1">
          <mxGeometry width="50" height="50" relative="1" as="geometry">
            <mxPoint x="160" y="1000" as="sourcePoint" />
            <mxPoint x="760" y="1000" as="targetPoint" />
          </mxGeometry>
        </mxCell>
        <mxCell id="bPi-4fs3GxHla9bLMD3g-3" value="&lt;font style=&quot;font-size: 12px;&quot;&gt;Movement of Client&lt;/font&gt;" style="edgeLabel;html=1;align=center;verticalAlign=middle;resizable=0;points=[];fontColor=#FFFFFF;labelBackgroundColor=none;" parent="bPi-4fs3GxHla9bLMD3g-2" vertex="1" connectable="0">
          <mxGeometry x="-0.0933" y="1" relative="1" as="geometry">
            <mxPoint as="offset" />
          </mxGeometry>
        </mxCell>
        <mxCell id="bPi-4fs3GxHla9bLMD3g-4" value="&lt;font color=&quot;#6881b3&quot;&gt;Mobile Client&lt;/font&gt;" style="fontColor=#0066CC;verticalAlign=top;verticalLabelPosition=bottom;labelPosition=center;align=center;html=1;outlineConnect=0;fillColor=#CCCCCC;strokeColor=#6881B3;gradientColor=none;gradientDirection=north;strokeWidth=2;shape=mxgraph.networks.laptop;sketch=0;aspect=fixed;opacity=40;" parent="1" vertex="1">
          <mxGeometry x="420" y="920" width="72.73" height="40" as="geometry" />
        </mxCell>
        <mxCell id="bPi-4fs3GxHla9bLMD3g-5" value="" style="html=1;outlineConnect=0;fillColor=#CCCCCC;strokeColor=#6881B3;gradientColor=none;gradientDirection=north;strokeWidth=2;shape=mxgraph.networks.comm_link_edge;html=1;rounded=0;entryX=0.5;entryY=0;entryDx=0;entryDy=0;entryPerimeter=0;exitX=0.98;exitY=0.94;exitDx=0;exitDy=0;exitPerimeter=0;opacity=40;" parent="1" source="gaxqdymrh4cW0pRXTRzF-1" target="bPi-4fs3GxHla9bLMD3g-4" edge="1">
          <mxGeometry width="100" height="100" relative="1" as="geometry">
            <mxPoint x="460" y="833" as="sourcePoint" />
            <mxPoint x="640" y="1043" as="targetPoint" />
            <Array as="points">
              <mxPoint x="480" y="940" />
              <mxPoint x="460" y="870" />
            </Array>
          </mxGeometry>
        </mxCell>
        <mxCell id="bPi-4fs3GxHla9bLMD3g-6" value="Mobile Client" style="fontColor=#0066CC;verticalAlign=top;verticalLabelPosition=bottom;labelPosition=center;align=center;html=1;outlineConnect=0;fillColor=#CCCCCC;strokeColor=#6881B3;gradientColor=none;gradientDirection=north;strokeWidth=2;shape=mxgraph.networks.laptop;sketch=0;aspect=fixed;" parent="1" vertex="1">
          <mxGeometry x="645.84" y="921.38" width="72.73" height="40" as="geometry" />
        </mxCell>
        <mxCell id="bPi-4fs3GxHla9bLMD3g-7" value="" style="html=1;outlineConnect=0;fillColor=#CCCCCC;strokeColor=#6881B3;gradientColor=none;gradientDirection=north;strokeWidth=2;shape=mxgraph.networks.comm_link_edge;html=1;rounded=0;entryX=0.5;entryY=0;entryDx=0;entryDy=0;entryPerimeter=0;exitX=0.02;exitY=0.94;exitDx=0;exitDy=0;exitPerimeter=0;" parent="1" source="gaxqdymrh4cW0pRXTRzF-2" target="bPi-4fs3GxHla9bLMD3g-6" edge="1">
          <mxGeometry width="100" height="100" relative="1" as="geometry">
            <mxPoint x="620.0024" y="829.9999999999999" as="sourcePoint" />
            <mxPoint x="815.84" y="1044.38" as="targetPoint" />
            <Array as="points">
              <mxPoint x="655.84" y="941.38" />
              <mxPoint x="690" y="880" />
            </Array>
          </mxGeometry>
        </mxCell>
        <mxCell id="y7ShmAoDJI39zBESHCzj-16" value="Gateway" style="fontColor=#0066CC;verticalAlign=top;verticalLabelPosition=bottom;labelPosition=center;align=center;html=1;outlineConnect=0;fillColor=#CCCCCC;strokeColor=#6881B3;gradientColor=none;gradientDirection=north;strokeWidth=2;shape=mxgraph.networks.wireless_modem;aspect=fixed;" vertex="1" parent="1">
          <mxGeometry x="50.99999999999994" y="320" width="71.38" height="73.1" as="geometry" />
        </mxCell>
        <mxCell id="y7ShmAoDJI39zBESHCzj-17" value="Server" style="fontColor=#0066CC;verticalAlign=top;verticalLabelPosition=bottom;labelPosition=center;align=center;html=1;outlineConnect=0;fillColor=#CCCCCC;strokeColor=#6881B3;gradientColor=none;gradientDirection=north;strokeWidth=2;shape=mxgraph.networks.terminal;aspect=fixed;" vertex="1" parent="1">
          <mxGeometry x="54.23999999999995" y="480" width="64.9" height="60" as="geometry" />
        </mxCell>
        <mxCell id="y7ShmAoDJI39zBESHCzj-18" value="" style="group" vertex="1" connectable="0" parent="1">
          <mxGeometry x="116.69" y="370" width="24.310000000000002" height="150" as="geometry" />
        </mxCell>
        <mxCell id="y7ShmAoDJI39zBESHCzj-19" value="" style="sketch=0;pointerEvents=1;shadow=0;dashed=0;html=1;strokeColor=none;fillColor=#6881B3;aspect=fixed;labelPosition=center;verticalLabelPosition=bottom;verticalAlign=top;align=center;outlineConnect=0;shape=mxgraph.vvd.ethernet_port;" vertex="1" parent="y7ShmAoDJI39zBESHCzj-18">
          <mxGeometry x="4.310000000000002" width="20" height="20" as="geometry" />
        </mxCell>
        <mxCell id="y7ShmAoDJI39zBESHCzj-20" value="" style="sketch=0;pointerEvents=1;shadow=0;dashed=0;html=1;strokeColor=none;fillColor=#6881B3;aspect=fixed;labelPosition=center;verticalLabelPosition=bottom;verticalAlign=top;align=center;outlineConnect=0;shape=mxgraph.vvd.ethernet_port;" vertex="1" parent="y7ShmAoDJI39zBESHCzj-18">
          <mxGeometry x="4.310000000000002" y="130" width="20" height="20" as="geometry" />
        </mxCell>
        <mxCell id="y7ShmAoDJI39zBESHCzj-21" value="" style="curved=1;endArrow=none;html=1;rounded=0;strokeColor=#6881B3;endFill=0;strokeWidth=2;" edge="1" parent="y7ShmAoDJI39zBESHCzj-18" source="y7ShmAoDJI39zBESHCzj-20" target="y7ShmAoDJI39zBESHCzj-19">
          <mxGeometry width="50" height="50" relative="1" as="geometry">
            <mxPoint x="-50" y="100" as="sourcePoint" />
            <mxPoint y="50" as="targetPoint" />
            <Array as="points">
              <mxPoint x="20" y="100" />
              <mxPoint y="50" />
            </Array>
          </mxGeometry>
        </mxCell>
        <mxCell id="y7ShmAoDJI39zBESHCzj-26" value="&lt;font color=&quot;#6881b3&quot;&gt;Mobile Client&lt;/font&gt;" style="fontColor=#0066CC;verticalAlign=top;verticalLabelPosition=bottom;labelPosition=center;align=center;html=1;outlineConnect=0;fillColor=#CCCCCC;strokeColor=#6881B3;gradientColor=none;gradientDirection=north;strokeWidth=2;shape=mxgraph.networks.laptop;sketch=0;aspect=fixed;opacity=40;" vertex="1" parent="1">
          <mxGeometry x="211" y="480" width="72.73" height="40" as="geometry" />
        </mxCell>
        <mxCell id="y7ShmAoDJI39zBESHCzj-27" value="" style="html=1;outlineConnect=0;fillColor=#CCCCCC;strokeColor=#6881B3;gradientColor=none;gradientDirection=north;strokeWidth=2;shape=mxgraph.networks.comm_link_edge;html=1;rounded=0;entryX=0.5;entryY=0;entryDx=0;entryDy=0;entryPerimeter=0;opacity=40;" edge="1" parent="1" target="y7ShmAoDJI39zBESHCzj-26">
          <mxGeometry width="100" height="100" relative="1" as="geometry">
            <mxPoint x="151" y="390" as="sourcePoint" />
            <mxPoint x="331" y="600" as="targetPoint" />
            <Array as="points">
              <mxPoint x="231" y="500" />
              <mxPoint x="201" y="420" />
            </Array>
          </mxGeometry>
        </mxCell>
        <mxCell id="y7ShmAoDJI39zBESHCzj-28" value="" style="shape=flexArrow;endArrow=classic;html=1;rounded=0;strokeColor=none;fillColor=#6881B3;gradientColor=#91B4FA;gradientDirection=west;width=16;endSize=7.67;" edge="1" parent="1">
          <mxGeometry width="50" height="50" relative="1" as="geometry">
            <mxPoint x="171" y="560" as="sourcePoint" />
            <mxPoint x="771" y="560" as="targetPoint" />
          </mxGeometry>
        </mxCell>
        <mxCell id="y7ShmAoDJI39zBESHCzj-29" value="&lt;font style=&quot;font-size: 12px;&quot;&gt;Movement of Client&lt;/font&gt;" style="edgeLabel;html=1;align=center;verticalAlign=middle;resizable=0;points=[];fontColor=#FFFFFF;labelBackgroundColor=none;" vertex="1" connectable="0" parent="y7ShmAoDJI39zBESHCzj-28">
          <mxGeometry x="-0.0933" y="1" relative="1" as="geometry">
            <mxPoint as="offset" />
          </mxGeometry>
        </mxCell>
        <mxCell id="y7ShmAoDJI39zBESHCzj-32" value="Mobile Client" style="fontColor=#0066CC;verticalAlign=top;verticalLabelPosition=bottom;labelPosition=center;align=center;html=1;outlineConnect=0;fillColor=#CCCCCC;strokeColor=#6881B3;gradientColor=none;gradientDirection=north;strokeWidth=2;shape=mxgraph.networks.laptop;sketch=0;aspect=fixed;" vertex="1" parent="1">
          <mxGeometry x="656.84" y="481.38" width="72.73" height="40" as="geometry" />
        </mxCell>
        <mxCell id="y7ShmAoDJI39zBESHCzj-34" value="" style="html=1;outlineConnect=0;fillColor=#CCCCCC;strokeColor=#6881B3;gradientColor=none;gradientDirection=north;strokeWidth=2;shape=mxgraph.networks.comm_link_edge;html=1;rounded=0;entryX=0.5;entryY=0;entryDx=0;entryDy=0;entryPerimeter=0;" edge="1" parent="1" source="y7ShmAoDJI39zBESHCzj-19">
          <mxGeometry width="100" height="100" relative="1" as="geometry">
            <mxPoint x="690.9975999999999" y="388.6199999999999" as="sourcePoint" />
            <mxPoint x="691.4849999999999" y="481.3800000000001" as="targetPoint" />
            <Array as="points">
              <mxPoint x="450" y="450" />
              <mxPoint x="430" y="420" />
            </Array>
          </mxGeometry>
        </mxCell>
        <mxCell id="2YwI1hOEUviwos6dcKkN-1" value="2.4 GHz" style="text;html=1;strokeColor=none;fillColor=none;align=center;verticalAlign=middle;whiteSpace=wrap;rounded=0;fontSize=12;fontColor=#0066CC;" vertex="1" parent="1">
          <mxGeometry x="390" y="363.1" width="80" height="30" as="geometry" />
        </mxCell>
        <mxCell id="2YwI1hOEUviwos6dcKkN-2" value="2.4 GHz" style="text;html=1;strokeColor=none;fillColor=none;align=center;verticalAlign=middle;whiteSpace=wrap;rounded=0;fontSize=12;fontColor=#6881B3;" vertex="1" parent="1">
          <mxGeometry x="200" y="430" width="80" height="30" as="geometry" />
        </mxCell>
        <mxCell id="2YwI1hOEUviwos6dcKkN-3" value="2.4 GHz" style="text;html=1;strokeColor=none;fillColor=none;align=center;verticalAlign=middle;whiteSpace=wrap;rounded=0;fontSize=12;fontColor=#0066CC;" vertex="1" parent="1">
          <mxGeometry x="680" y="870" width="80" height="30" as="geometry" />
        </mxCell>
        <mxCell id="2YwI1hOEUviwos6dcKkN-4" value="2.4 GHz" style="text;html=1;strokeColor=none;fillColor=none;align=center;verticalAlign=middle;whiteSpace=wrap;rounded=0;fontSize=12;fontColor=#6881B3;" vertex="1" parent="1">
          <mxGeometry x="450" y="870" width="80" height="30" as="geometry" />
        </mxCell>
        <mxCell id="2YwI1hOEUviwos6dcKkN-5" value="2.4 GHz" style="text;html=1;strokeColor=none;fillColor=none;align=center;verticalAlign=middle;whiteSpace=wrap;rounded=0;fontSize=12;fontColor=#6881B3;" vertex="1" parent="1">
          <mxGeometry x="196.37" y="870" width="80" height="30" as="geometry" />
        </mxCell>
        <mxCell id="2YwI1hOEUviwos6dcKkN-6" value="5 GHz" style="text;html=1;strokeColor=none;fillColor=none;align=center;verticalAlign=middle;whiteSpace=wrap;rounded=0;fontSize=12;fontColor=#0066CC;" vertex="1" parent="1">
          <mxGeometry x="540" y="700" width="80" height="30" as="geometry" />
        </mxCell>
        <mxCell id="2YwI1hOEUviwos6dcKkN-7" value="5 GHz" style="text;html=1;strokeColor=none;fillColor=none;align=center;verticalAlign=middle;whiteSpace=wrap;rounded=0;fontSize=12;fontColor=#0066CC;" vertex="1" parent="1">
          <mxGeometry x="220" y="700" width="80" height="30" as="geometry" />
        </mxCell>
      </root>
    </mxGraphModel>
  </diagram>
  <diagram id="QgpVpOXm-Jw_y1CyPbPH" name="Topologies">
    <mxGraphModel dx="1434" dy="760" grid="1" gridSize="10" guides="1" tooltips="1" connect="1" arrows="1" fold="1" page="1" pageScale="1" pageWidth="850" pageHeight="1100" math="0" shadow="0">
      <root>
        <mxCell id="0" />
        <mxCell id="1" parent="0" />
        <mxCell id="dSFbPj8GuC48uh5Uzbvk-1" value="Gateway" style="fontColor=#0066CC;verticalAlign=top;verticalLabelPosition=bottom;labelPosition=center;align=center;html=1;outlineConnect=0;fillColor=#CCCCCC;strokeColor=#6881B3;gradientColor=none;gradientDirection=north;strokeWidth=2;shape=mxgraph.networks.wireless_modem;aspect=fixed;" parent="1" vertex="1">
          <mxGeometry x="62" y="120" width="71.38" height="73.1" as="geometry" />
        </mxCell>
        <mxCell id="dSFbPj8GuC48uh5Uzbvk-2" value="Extender A" style="fontColor=#0066CC;verticalAlign=top;verticalLabelPosition=bottom;labelPosition=center;align=center;html=1;outlineConnect=0;fillColor=#CCCCCC;strokeColor=#6881B3;gradientColor=none;gradientDirection=north;strokeWidth=2;shape=mxgraph.networks.wireless_hub;aspect=fixed;" parent="1" vertex="1">
          <mxGeometry x="382" y="120" width="85.88" height="73" as="geometry" />
        </mxCell>
        <mxCell id="dSFbPj8GuC48uh5Uzbvk-3" value="Extender B" style="fontColor=#0066CC;verticalAlign=top;verticalLabelPosition=bottom;labelPosition=center;align=center;html=1;outlineConnect=0;fillColor=#CCCCCC;strokeColor=#6881B3;gradientColor=none;gradientDirection=north;strokeWidth=2;shape=mxgraph.networks.wireless_hub;aspect=fixed;" parent="1" vertex="1">
          <mxGeometry x="702" y="120" width="85.88" height="73" as="geometry" />
        </mxCell>
        <mxCell id="dSFbPj8GuC48uh5Uzbvk-4" value="" style="html=1;outlineConnect=0;fillColor=#CCCCCC;strokeColor=#6881B3;gradientColor=none;gradientDirection=north;strokeWidth=2;shape=mxgraph.networks.comm_link_edge;html=1;rounded=0;entryX=0.55;entryY=0;entryDx=0;entryDy=0;entryPerimeter=0;" parent="1" target="dSFbPj8GuC48uh5Uzbvk-2" edge="1">
          <mxGeometry width="100" height="100" relative="1" as="geometry">
            <mxPoint x="129.00000000000006" y="120" as="sourcePoint" />
            <mxPoint x="426.2339999999999" y="120" as="targetPoint" />
            <Array as="points">
              <mxPoint x="269" y="120" />
              <mxPoint x="289" y="110" />
            </Array>
          </mxGeometry>
        </mxCell>
        <mxCell id="dSFbPj8GuC48uh5Uzbvk-5" value="" style="html=1;outlineConnect=0;fillColor=#CCCCCC;strokeColor=#6881B3;gradientColor=none;gradientDirection=north;strokeWidth=2;shape=mxgraph.networks.comm_link_edge;html=1;rounded=0;entryX=0.55;entryY=0;entryDx=0;entryDy=0;entryPerimeter=0;exitX=0.82;exitY=0;exitDx=0;exitDy=0;exitPerimeter=0;" parent="1" source="dSFbPj8GuC48uh5Uzbvk-2" target="dSFbPj8GuC48uh5Uzbvk-3" edge="1">
          <mxGeometry width="100" height="100" relative="1" as="geometry">
            <mxPoint x="452" y="90" as="sourcePoint" />
            <mxPoint x="749.2339999999999" y="90" as="targetPoint" />
            <Array as="points">
              <mxPoint x="592" y="90" />
              <mxPoint x="612" y="80" />
            </Array>
          </mxGeometry>
        </mxCell>
        <mxCell id="KnnhpgwfkySA0pyUHkTX-1" value="Waterfall" style="text;html=1;strokeColor=none;fillColor=none;align=center;verticalAlign=middle;whiteSpace=wrap;rounded=0;fontSize=18;fontColor=#0066CC;" parent="1" vertex="1">
          <mxGeometry x="385" y="80" width="80" height="30" as="geometry" />
        </mxCell>
        <mxCell id="KnnhpgwfkySA0pyUHkTX-10" value="Extender B" style="fontColor=#0066CC;verticalAlign=top;verticalLabelPosition=bottom;labelPosition=center;align=center;html=1;outlineConnect=0;fillColor=#CCCCCC;strokeColor=#6881B3;gradientColor=none;gradientDirection=north;strokeWidth=2;shape=mxgraph.networks.wireless_hub;aspect=fixed;" parent="1" vertex="1">
          <mxGeometry x="702" y="290" width="85.88" height="73" as="geometry" />
        </mxCell>
        <mxCell id="KnnhpgwfkySA0pyUHkTX-11" value="" style="html=1;outlineConnect=0;fillColor=#CCCCCC;strokeColor=#6881B3;gradientColor=none;gradientDirection=north;strokeWidth=2;shape=mxgraph.networks.comm_link_edge;html=1;rounded=0;entryX=0.55;entryY=0;entryDx=0;entryDy=0;entryPerimeter=0;" parent="1" edge="1">
          <mxGeometry width="100" height="100" relative="1" as="geometry">
            <mxPoint x="129" y="290" as="sourcePoint" />
            <mxPoint x="429.2339999999999" y="290" as="targetPoint" />
            <Array as="points">
              <mxPoint x="269" y="290" />
              <mxPoint x="289" y="280" />
            </Array>
          </mxGeometry>
        </mxCell>
        <mxCell id="KnnhpgwfkySA0pyUHkTX-12" value="" style="html=1;outlineConnect=0;fillColor=#CCCCCC;strokeColor=#6881B3;gradientColor=none;gradientDirection=north;strokeWidth=2;shape=mxgraph.networks.comm_link_edge;html=1;rounded=0;entryX=0.55;entryY=0;entryDx=0;entryDy=0;entryPerimeter=0;exitX=0.82;exitY=0;exitDx=0;exitDy=0;exitPerimeter=0;" parent="1" target="KnnhpgwfkySA0pyUHkTX-10" edge="1">
          <mxGeometry width="100" height="100" relative="1" as="geometry">
            <mxPoint x="452.4216000000001" y="290" as="sourcePoint" />
            <mxPoint x="749.2339999999999" y="260" as="targetPoint" />
            <Array as="points">
              <mxPoint x="592" y="260" />
              <mxPoint x="612" y="250" />
            </Array>
          </mxGeometry>
        </mxCell>
        <mxCell id="KnnhpgwfkySA0pyUHkTX-13" value="Star" style="text;html=1;strokeColor=none;fillColor=none;align=center;verticalAlign=middle;whiteSpace=wrap;rounded=0;fontSize=18;fontColor=#0066CC;" parent="1" vertex="1">
          <mxGeometry x="384.69" y="250" width="80" height="30" as="geometry" />
        </mxCell>
        <mxCell id="KnnhpgwfkySA0pyUHkTX-14" value="Extender A" style="fontColor=#0066CC;verticalAlign=top;verticalLabelPosition=bottom;labelPosition=center;align=center;html=1;outlineConnect=0;fillColor=#CCCCCC;strokeColor=#6881B3;gradientColor=none;gradientDirection=north;strokeWidth=2;shape=mxgraph.networks.wireless_hub;aspect=fixed;" parent="1" vertex="1">
          <mxGeometry x="54.75" y="290" width="85.88" height="73" as="geometry" />
        </mxCell>
        <mxCell id="KnnhpgwfkySA0pyUHkTX-15" value="Gateway" style="fontColor=#0066CC;verticalAlign=top;verticalLabelPosition=bottom;labelPosition=center;align=center;html=1;outlineConnect=0;fillColor=#CCCCCC;strokeColor=#6881B3;gradientColor=none;gradientDirection=north;strokeWidth=2;shape=mxgraph.networks.wireless_modem;aspect=fixed;" parent="1" vertex="1">
          <mxGeometry x="389" y="290" width="71.38" height="73.1" as="geometry" />
        </mxCell>
        <mxCell id="Iw31qj4XFUbkp92HqZpJ-1" value="5 GHz" style="text;html=1;strokeColor=none;fillColor=none;align=center;verticalAlign=middle;whiteSpace=wrap;rounded=0;fontSize=12;fontColor=#0066CC;" vertex="1" parent="1">
          <mxGeometry x="240" y="230" width="80" height="30" as="geometry" />
        </mxCell>
        <mxCell id="Iw31qj4XFUbkp92HqZpJ-2" value="5 GHz" style="text;html=1;strokeColor=none;fillColor=none;align=center;verticalAlign=middle;whiteSpace=wrap;rounded=0;fontSize=12;fontColor=#0066CC;" vertex="1" parent="1">
          <mxGeometry x="560" y="230" width="80" height="30" as="geometry" />
        </mxCell>
        <mxCell id="Iw31qj4XFUbkp92HqZpJ-3" value="5 GHz" style="text;html=1;strokeColor=none;fillColor=none;align=center;verticalAlign=middle;whiteSpace=wrap;rounded=0;fontSize=12;fontColor=#0066CC;" vertex="1" parent="1">
          <mxGeometry x="240" y="60" width="80" height="30" as="geometry" />
        </mxCell>
        <mxCell id="Iw31qj4XFUbkp92HqZpJ-4" value="5 GHz" style="text;html=1;strokeColor=none;fillColor=none;align=center;verticalAlign=middle;whiteSpace=wrap;rounded=0;fontSize=12;fontColor=#0066CC;" vertex="1" parent="1">
          <mxGeometry x="560" y="60" width="80" height="30" as="geometry" />
        </mxCell>
      </root>
    </mxGraphModel>
  </diagram>
</mxfile>
